<svg fill="none" height="32" viewBox="0 0 32 32" width="32" xmlns="http://www.w3.org/2000/svg"><g fill="#212121"><path d="m29.9073 9.78278c.7315 1.90952 1.0905 4.01872 1.0905 6.21612 0 4.0611-1.2263 7.821-3.7635 10.5761-2.5495 2.7686-6.3317 4.4228-11.2354 4.4228s-8.6859-1.6542-11.23548-4.4228c-2.53716-2.7551-3.76342-6.515-3.76342-10.5761s1.22626-7.82105 3.76342-10.57614c2.54958-2.76857 6.33178-4.42276 11.23548-4.42276 2.6228 0 4.9247.47323 6.8889 1.33708-.5868.39252-.9328 1.07705-.8837 1.79668-1.6763-.72369-3.6726-1.13376-6.0052-1.13376-4.4308 0-7.64802 1.47956-9.76428 3.77759-2.12867 2.31152-3.23462 5.55101-3.23462 9.22131 0 3.6702 1.10595 6.9098 3.23462 9.2213 2.11626 2.298 5.33348 3.7776 9.76428 3.7776 4.4307 0 7.648-1.4796 9.7642-3.7776 2.1287-2.3115 3.2347-5.5511 3.2347-9.2213 0-2.0579-.3477-3.9803-1.0284-5.6797l1.5157-.37896c.1493-.03734.2905-.09058.4222-.15746z"/><path d="m6.29289 16.2929c.39053-.3905 1.02369-.3905 1.41422 0 .14199.142.95268.7071 2.29289.7071 1.3402 0 2.1509-.5651 2.2929-.7071.3905-.3905 1.0237-.3905 1.4142 0s.3905 1.0237 0 1.4142c-.5247.5247-1.8473 1.2929-3.7071 1.2929-1.85979 0-3.18244-.7682-3.70711-1.2929-.39052-.3905-.39052-1.0237 0-1.4142z"/><path d="m18.2929 16.2929c.3905-.3905 1.0237-.3905 1.4142 0 .142.142.9527.7071 2.2929.7071s2.1509-.5651 2.2929-.7071c.3905-.3905 1.0237-.3905 1.4142 0s.3905 1.0237 0 1.4142c-.5247.5247-1.8473 1.2929-3.7071 1.2929s-3.1824-.7682-3.7071-1.2929c-.3905-.3905-.3905-1.0237 0-1.4142z"/><path d="m14 24c0-1.1046.8954-2 2-2s2 .8954 2 2-.8954 2-2 2-2-.8954-2-2z"/><path d="m28.8944 3.44719c.1747-.3493.13-.76831-.1144-1.07294-.2443-.30463-.6437-.43913-1.0225-.34441l-4 1c-.5358.13394-.8616.67688-.7276 1.21267.1339.5358.6768.86156 1.2126.72761l1.8907-.47267-2.0276 4.05531c-.1747.34931-.13.76832.1144 1.07295.2443.30463.6437.43909 1.0225.34441l4-1c.5358-.13395.8616-.67688.7276-1.21268-.1339-.53579-.6768-.86155-1.2126-.7276l-1.8907.47267z"/><path d="m19.5 6c-.2761 0-.5.22386-.5.5s.2239.5.5.5h2l-2.4 3.2c-.1136.1515-.1319.3542-.0472.5236s.2578.2764.4472.2764h3c.2761 0 .5-.2239.5-.5s-.2239-.5-.5-.5h-2l2.4-3.2c.1136-.15151.1319-.35421.0472-.52361-.0847-.16939-.2578-.27639-.4472-.27639z"/><path d="m14.0257 8.3419c.0873-.26197.3705-.40355.6324-.31623l3 1c.1871.06236.32.22884.3395.42507.0194.19624-.0783.38556-.2495.4834l-2.5291 1.44516 1.9391.6464c.262.0873.4036.3705.3163.6324-.0874.262-.3705.4036-.6325.3163l-3-1c-.1871-.0624-.32-.2289-.3395-.4251-.0194-.1962.0783-.3856.2495-.4834l2.5291-1.44518-1.9391-.64636c-.262-.08733-.4036-.37049-.3162-.63246z"/></g></svg>